<?xml version="1.0" encoding="utf-8"?>
<svg viewBox="0 0 500 500" xmlns="http://www.w3.org/2000/svg">
  <rect x="150.258" y="200" width="198.619" height="100" style="fill: rgb(255, 255, 255);"/>
  <rect x="163.212" y="244.387" width="45.769" height="0.864" style="fill: rgb(216, 216, 216);"/>
  <circle style="fill: rgb(255, 255, 255);" cx="250" cy="84.938" r="50"/>
  <circle style="fill: rgb(255, 255, 255);" cx="101.037" cy="397.668" r="47.964"/>
  <circle style="fill: rgb(255, 255, 255);" cx="402.418" cy="398.1" r="47.964"/>
  <line x1="231.433507569687" y1="319.5164097044186" x2="321.24352543255054" y2="379.10190232497234" style="fill: rgb(216, 216, 216);"/>
  <line x1="229.70639184155502" y1="321.24352543255054" x2="319.5164097044186" y2="379.96546018903837" style="fill: rgb(216, 216, 216);"/>
  <line x1="238.34197048221498" y1="321.24352543255054" x2="342.83247203420046" y2="403.2815225188202" style="fill: rgb(216, 216, 216);"/>
  <line x1="215.88946601649903" y1="320.37996756848463" x2="120.89810096923947" y2="384.28324950936826" style="fill: rgb(216, 216, 216);"/>
  <line x1="254.74956989946887" y1="319.5164097044186" x2="327.2884304810126" y2="383.41969164530235" style="paint-order: fill; fill: rgb(78, 34, 34);"/>
  <line x1="223.66148679309302" y1="322.9706411606826" x2="121.76165883330546" y2="379.10190232497234" style="fill: rgb(216, 216, 216);"/>
  <line x1="228.842833977489" y1="318.6528518403526" x2="125.21589028956944" y2="382.5561337812363" style="fill: rgb(216, 216, 216);"/>
  <line x1="125.21589028956944" y1="382.5561337812363" x2="125.21589028956944" y2="382.5561337812363" style="fill: rgb(216, 216, 216);"/>
  <line x1="238.34197048221498" y1="163.2124363084733" x2="285.8376530058448" y2="276.33851650111876" style="fill: rgb(216, 216, 216);"/>
  <line x1="232.29706543375298" y1="310.8808310637586" x2="343.6960298982665" y2="392.9188281500283" style="fill: rgb(216, 216, 216);"/>
  <line x1="251.29533844320488" y1="316.92573611222065" x2="323.8341990247486" y2="380.8290180531043" style="fill: rgb(216, 216, 216);"/>
  <line x1="323.8341990247486" y1="380.8290180531043" x2="323.8341990247486" y2="380.8290180531043" style="fill: rgb(216, 216, 216);"/>
  <line x1="323.8341990247486" y1="380.8290180531043" x2="234.02418116188497" y2="341.10535630606853" style="fill: rgb(216, 216, 216);"/>
  <line x1="234.02418116188497" y1="341.10535630606853" x2="221.070813200895" y2="433.50604776113005" style="fill: rgb(216, 216, 216);"/>
  <line x1="303.9723681512306" y1="358.37651358738844" x2="249.5682227150729" y2="468.9119201878359" style="fill: rgb(216, 216, 216);"/>
  <line x1="183.0742671819912" y1="356.6493978592564" x2="261.6580328119968" y2="462.00345727530794" style="fill: rgb(216, 216, 216);"/>
  <line x1="236.61485475408298" y1="174.43868854133123" x2="236.61485475408298" y2="174.43868854133123" style="fill: rgb(216, 216, 216);"/>
  <line x1="151.12262621154935" y1="145.94127902715337" x2="162.3488784444073" y2="402.4179646547542" style="fill: rgb(216, 216, 216);"/>
  <line x1="102.763" y1="170.984" x2="91.53713359099561" y2="121.76165883330546" style="fill: rgb(216, 216, 216);"/>
  <line x1="236.61485475408298" y1="149.39551048341735" x2="236.61485475408298" y2="217.61658174463102" style="fill: rgb(216, 216, 216);"/>
  <line x1="240.06908621034697" y1="147.66839475528536" x2="234.887739025951" y2="230.56994970562099" style="fill: rgb(216, 216, 216);"/>
  <line x1="233.160623297819" y1="169.25734135693526" x2="331.6062198013425" y2="240.06908621034697" style="fill: rgb(216, 216, 216);"/>
  <line x1="211.57167669616908" y1="177.89291999759521" x2="189.98273009451916" y2="418.8255640720082" style="fill: rgb(216, 216, 216);"/>
  <line x1="184.80138291012318" y1="413.6442168876122" x2="341.96891417013455" y2="162.3488784444073" style="fill: rgb(216, 216, 216);"/>
  <line x1="316.92573611222065" y1="133.8514689302294" x2="249.5682227150729" y2="269.4300535885908" style="fill: rgb(216, 216, 216);"/>
  <line x1="249.5682227150729" y1="269.4300535885908" x2="249.5682227150729" y2="269.4300535885908" style="fill: rgb(216, 216, 216);"/>
  <line x1="249.5682227150729" y1="269.4300535885908" x2="316.92573611222065" y2="177.89291999759521" style="fill: rgb(216, 216, 216);"/>
  <line x1="316.92573611222065" y1="177.89291999759521" x2="154.57685766781333" y2="183.93782504605718" style="fill: rgb(216, 216, 216);"/>
  <line x1="25.043" y1="275.475" x2="116.58" y2="176.166" style="fill: rgb(216, 216, 216);"/>
  <line x1="316.0621782481546" y1="157.16753126001132" x2="170.12089922100125" y2="226.25216038529098" style="fill: rgb(216, 216, 216);"/>
  <line x1="230.56994970562099" y1="139.03281611462538" x2="260.7944749479309" y2="354.05872426705844" style="fill: rgb(216, 216, 216);"/>
  <line x1="258.2038013557328" y1="333.33333552947454" x2="234.02418116188497" y2="136.4421425224274" style="fill: rgb(216, 216, 216);"/>
  <rect x="370.854" y="160.622" width="116.58" height="6.045" style="fill: rgb(255, 255, 255);" rx="3.023" ry="3.023" transform="matrix(0, -1, 1, 0, 85.491676, 615.240662)"/>
  <rect x="348.877" y="160.622" width="109.672" height="6.045" style="fill: rgb(255, 255, 255);" rx="3.023" ry="3.023" transform="matrix(-0.5, -0.866025, 0.866025, -0.5, 407.286438, 770.826172)"/>
  <rect x="348.877" y="160.622" width="109.672" height="6.045" style="fill: rgb(255, 255, 255);" rx="3.023" ry="3.023" transform="matrix(0.5, -0.866025, 0.866025, 0.5, -195.044861, 607.181702)"/>
</svg>